<?xml version="1.0" standalone="no"?>
<!DOCTYPE svg PUBLIC "-//W3C//DTD SVG 20010904//EN"
 "http://www.w3.org/TR/2001/REC-SVG-20010904/DTD/svg10.dtd">
<svg version="1.0" xmlns="http://www.w3.org/2000/svg"
 width="195" height="37" viewBox="0 0 256.000000 256.000000"
 preserveAspectRatio="xMidYMid meet">

<g transform="translate(0.000000,256.000000) scale(0.100000,-0.100000)"
fill="#000000" stroke="none">
<path d="M500 1995 l0 -145 188 -1 187 0 133 -169 132 -168 0 -326 0 -325
-173 112 -172 113 -3 322 -2 322 -145 0 -145 0 2 -401 3 -401 385 -254 c212
-139 389 -254 394 -254 10 0 295 183 594 382 l192 128 0 400 0 400 -145 0
-145 0 0 -322 0 -323 -146 -95 c-81 -52 -160 -103 -175 -113 l-29 -19 0 325 0
325 136 171 135 171 185 0 184 0 0 145 0 145 -253 0 -253 0 -135 -170 c-74
-93 -137 -169 -141 -170 -3 0 -68 77 -143 170 l-138 170 -253 0 -254 0 0 -145z"/>
</g>
</svg>
